<?xml version="1.0" encoding="utf-8"?>
<!-- Generator: Adobe Illustrator 27.5.0, SVG Export Plug-In . SVG Version: 6.00 Build 0)  -->
<svg version="1.1" xmlns="http://www.w3.org/2000/svg" xmlns:xlink="http://www.w3.org/1999/xlink" x="0px" y="0px"
	 viewBox="0 0 500 500" style="enable-background:new 0 0 500 500;" xml:space="preserve">
<g id="BACKGROUND">
	<rect style="fill:#FFFFFF;" width="500" height="500"/>
</g>
<g id="OBJECTS">
	<path style="fill:#E3FBFF;" d="M90.018,383.873h338.658c22.086-19.952,34.621-46.06,34.952-79.499
		c1.002-101.206-66.503-43.72-160.139-140.657s-258.36-52.977-258.36,69.991c0,62.308,16.166,114.195,44.405,150.225
		C89.68,383.896,89.84,383.873,90.018,383.873z"/>
	<g>
		<g>
			<rect x="366.971" y="144.224" style="fill:#A5C8E4;" width="36.715" height="120.246"/>
			<rect x="371.827" y="147.721" style="fill:#A5C8E4;" width="27.391" height="111.024"/>
			<rect x="371.827" y="147.721" style="fill:#FD5B68;" width="27.391" height="71.001"/>
			<g>
				<rect x="371.827" y="150.294" style="fill:#293F60;" width="11.073" height="2.137"/>
				<rect x="371.827" y="155.054" style="fill:#293F60;" width="5.537" height="2.137"/>
				<rect x="371.827" y="159.716" style="fill:#293F60;" width="11.073" height="2.137"/>
				<rect x="371.827" y="164.475" style="fill:#293F60;" width="5.537" height="2.137"/>
				<rect x="371.827" y="169.137" style="fill:#293F60;" width="11.073" height="2.137"/>
				<rect x="371.827" y="173.897" style="fill:#293F60;" width="5.537" height="2.136"/>
				<rect x="371.827" y="178.559" style="fill:#293F60;" width="11.073" height="2.137"/>
				<rect x="371.827" y="183.318" style="fill:#293F60;" width="5.537" height="2.137"/>
				<rect x="371.827" y="187.981" style="fill:#293F60;" width="11.073" height="2.136"/>
				<rect x="371.827" y="192.74" style="fill:#293F60;" width="5.537" height="2.137"/>
				<rect x="371.827" y="197.402" style="fill:#293F60;" width="11.073" height="2.137"/>
				<rect x="371.827" y="202.161" style="fill:#293F60;" width="5.537" height="2.136"/>
				<rect x="371.827" y="206.824" style="fill:#293F60;" width="11.073" height="2.136"/>
				<rect x="371.827" y="211.583" style="fill:#293F60;" width="5.537" height="2.137"/>
			</g>
			<polygon style="fill:#A5C8E4;" points="385.644,144.224 385.644,123.632 379.136,123.632 376.028,144.224 			"/>
			<polygon style="fill:#A5C8E4;" points="385.401,144.224 385.401,123.632 391.909,123.632 395.017,144.224 			"/>
			<polygon style="fill:#A5C8E4;" points="386.458,137.194 386.458,60.316 384.83,57.548 384.83,137.194 			"/>
			<rect x="371.827" y="218.722" style="fill:#A5C8E4;" width="27.391" height="3.012"/>
			<g>
				<rect x="363.863" y="300.574" style="fill:#A5C8E4;" width="43.319" height="7.422"/>
				<polygon style="opacity:0.5;fill:#A5C8E4;" points="385.522,220.228 371.827,221.574 371.827,254.655 378.675,302.139 
					385.522,302.139 392.37,302.139 399.218,254.655 399.218,221.574 				"/>
				<rect x="384.26" y="221.052" style="fill:#A5C8E4;" width="2.525" height="81.087"/>
			</g>
		</g>
	</g>
	<g id="XMLID_2111_">
		<g id="XMLID_2148_">
			<path style="fill:#2DA66D;" d="M138.044,168.918c0,0-44.604,12.578-65.141-20.792c0,0,12.764,5.303,24.673,1.661
				C97.576,149.787,127.76,147.822,138.044,168.918z"/>
		</g>
		<g id="XMLID_2146_">
			<path style="fill:#2DA66D;" d="M175.535,131.787c0,0,17.676,20.092-11.805,41.727c0,0-8.693-4.409-0.123-20.121
				c1.353-2.481,3.317-4.552,5.531-6.308C171.997,144.815,176.001,140.116,175.535,131.787z"/>
		</g>
		<g id="XMLID_2145_">
			<path style="fill:#2DA66D;" d="M164.247,154.538c1.353-2.481,3.317-4.552,5.531-6.308c2.859-2.268,6.864-6.968,6.398-15.297
				c0,0,0.798,0.913,1.77,2.544c-1.238-2.349-2.411-3.69-2.411-3.69c0.466,8.33-3.538,13.029-6.398,15.297
				c-2.213,1.757-4.177,3.828-5.531,6.309c-5.376,9.857-3.958,15.262-2.155,17.924C160.047,168.363,159.545,163.16,164.247,154.538z
				"/>
		</g>
		<g id="XMLID_2144_">
			<path style="fill:#2DA66D;" d="M126.784,103.655c0,0-15.066,53.038,25.304,68.732c0,0,5.261-7.819,2.797-22.768
				c-1.625-9.861-6.584-18.828-13.592-25.954C137.315,119.621,132.027,113.192,126.784,103.655z"/>
		</g>
		<g id="XMLID_2143_">
			<path style="fill:#2DA66D;" d="M141.294,123.665c-3.978-4.044-9.267-10.474-14.51-20.01c0,0-0.046-0.196-0.523,2.114
				c4.686,7.954,8.911,13.113,12.47,16.732c7.008,7.125,13.806,17.872,15.431,27.733c1.838,11.154-0.705,19.224-2.074,22.153
				c0.57,0.247-0.594-0.231,0,0c0,0,5.261-7.818,2.797-22.768C153.26,139.758,148.302,130.79,141.294,123.665z"/>
		</g>
		<g id="XMLID_2142_">
			<path style="fill:#2DA66D;" d="M119.37,174.264c0,0-16.818,0.914-16.767,24.46c0,0,13.421-18.067,19.9-8.258
				c0,0,11.446,10.479,23.633,6.412C146.136,196.878,139.199,169.44,119.37,174.264z"/>
		</g>
		<g id="XMLID_2141_">
			<path style="fill:#2DA66D;" d="M119.721,175.529c17.258-4.198,24.747,16.033,26.401,21.352c0.005-0.002,0.01-0.002,0.014-0.004
				c0,0-6.937-27.438-26.766-22.614c0,0-16.818,0.914-16.767,24.46c0,0,0.157-0.207,0.388-0.5
				C103.765,176.406,119.721,175.529,119.721,175.529z"/>
		</g>
		<g id="XMLID_2140_">
			<path id="XMLID_516_" style="fill:#033A3F;" d="M164.121,219.756c-0.096,0.028-0.202-0.01-0.258-0.098
				c-5.076-8.077-6.272-17.78-7.428-27.162c-0.844-6.849-1.716-13.931-4.079-20.402c-1.314-3.6-3.116-7.072-4.859-10.429
				l-0.617-1.191c-6.95-13.446-13.165-27.451-18.473-41.624c-0.044-0.119,0.016-0.251,0.134-0.295
				c0.112-0.055,0.251,0.016,0.295,0.134c5.302,14.157,11.51,28.145,18.451,41.575l0.617,1.191c1.749,3.37,3.558,6.855,4.882,10.483
				c2.381,6.521,3.257,13.63,4.104,20.504c1.15,9.333,2.339,18.983,7.361,26.974c0.067,0.107,0.035,0.249-0.072,0.316
				C164.161,219.742,164.141,219.75,164.121,219.756z"/>
		</g>
		<g id="XMLID_2139_">
			<path id="XMLID_514_" style="fill:#033A3F;" d="M169.424,213.929c-0.088,0.025-0.187-0.004-0.246-0.081
				c-6.704-8.792-12.111-24.088-8.928-35.118c1.337-4.634,3.969-8.859,6.514-12.945c3.203-5.143,6.515-10.46,7.103-16.491
				c0.012-0.126,0.126-0.22,0.25-0.206c0.126,0.012,0.218,0.125,0.206,0.251c-0.599,6.138-3.939,11.502-7.17,16.689
				c-2.528,4.06-5.143,8.258-6.463,12.831c-3.142,10.886,2.216,26.009,8.851,34.712c0.077,0.101,0.057,0.245-0.043,0.322
				C169.477,213.909,169.451,213.921,169.424,213.929z"/>
		</g>
		<g id="XMLID_2138_">
			<path id="XMLID_513_" style="fill:#033A3F;" d="M159.655,205.505c-0.064,0.018-0.134,0.009-0.193-0.031
				c-5.345-3.645-8.487-9.759-10.628-14.68c-0.539-1.238-1.064-2.511-1.572-3.742c-1.778-4.308-3.617-8.763-6.375-12.576
				c-4.33-5.987-10.963-10.278-18.199-11.774c-4.692-0.97-9.595-0.797-14.337-0.63c-1.771,0.062-3.602,0.127-5.398,0.131
				c-8.558,0.021-14.554-1.64-18.871-5.23c-0.097-0.081-0.111-0.226-0.03-0.323c0.081-0.098,0.226-0.111,0.323-0.03
				c4.23,3.517,10.133,5.145,18.577,5.124c1.789-0.005,3.616-0.069,5.383-0.131c4.769-0.168,9.7-0.343,14.447,0.639
				c7.346,1.518,14.081,5.875,18.477,11.954c2.789,3.857,4.639,8.337,6.427,12.67c0.507,1.229,1.032,2.5,1.569,3.735
				c2.116,4.863,5.218,10.906,10.465,14.484c0.105,0.071,0.132,0.214,0.06,0.319C159.75,205.46,159.705,205.491,159.655,205.505z"/>
		</g>
		<g id="XMLID_2137_">
			<path id="XMLID_508_" style="fill:#033A3F;" d="M169.424,213.929c-0.09,0.026-0.19-0.005-0.249-0.085
				c-3.799-5.208-9.713-8.615-14.931-11.62l-29.81-17.17c-1.277-0.736-2.725-1.569-4.269-1.789
				c-2.098-0.296-4.171,0.538-5.742,1.298c-2.901,1.404-5.547,3.251-7.867,5.489c-0.091,0.088-0.236,0.085-0.324-0.006
				c-0.088-0.091-0.085-0.236,0.006-0.324c2.354-2.272,5.041-4.147,7.985-5.572c1.63-0.788,3.785-1.653,6.006-1.339
				c1.632,0.231,3.121,1.088,4.434,1.845l29.81,17.17c5.257,3.028,11.216,6.46,15.072,11.747c0.075,0.103,0.052,0.246-0.05,0.321
				C169.474,213.91,169.45,213.922,169.424,213.929z"/>
		</g>
	</g>
	<g id="XMLID_00000008134301686356525900000018134779668413001648_">
		<g id="XMLID_00000166669190820589480200000003441712347772307365_">
			<path style="fill:#2DA66D;" d="M399.333,304.978c0,0,32.826,32.713,67.018,13.574c0,0-13.73-1.586-22.357-10.568
				C443.994,307.984,418.591,291.565,399.333,304.978z"/>
		</g>
		<g id="XMLID_00000145037994278345476880000003465947952668638638_">
			<path style="fill:#2DA66D;" d="M384.679,254.287c0,0-25.224,8.936-10.017,42.192c0,0,9.74,0.384,9.909-17.512
				c0.027-2.826-0.679-5.591-1.757-8.203C381.422,267.389,380.214,261.335,384.679,254.287z"/>
		</g>
		<g id="XMLID_00000044894333267416147900000011681352330907766414_">
			<path style="fill:#2DA66D;" d="M383.454,279.656c0.027-2.826-0.68-5.591-1.757-8.204c-1.392-3.374-2.6-9.428,1.865-16.476
				c0,0-1.141,0.408-2.785,1.36c2.225-1.449,3.903-2.049,3.903-2.049c-4.465,7.048-3.257,13.102-1.865,16.476
				c1.077,2.612,1.784,5.378,1.757,8.204c-0.107,11.227-3.978,15.257-6.849,16.704C380.387,293.775,383.36,289.476,383.454,279.656z
				"/>
		</g>
		<g id="XMLID_00000114772104236327659570000001456332962944033409_">
			<path style="fill:#2DA66D;" d="M440.959,253.467c0,0-12.68,53.658-55.581,47.699c0,0-0.786-9.391,8.649-21.246
				c6.223-7.82,14.922-13.236,24.513-16.045C423.984,262.281,431.734,259.243,440.959,253.467z"/>
		</g>
		<g id="XMLID_00000155122037787905251470000002215325991480668583_">
			<path style="fill:#2DA66D;" d="M418.539,263.875c5.444-1.594,13.195-4.633,22.42-10.407c0,0,0.136-0.149-0.573,2.101
				c-7.967,4.664-14.17,7.111-19.041,8.538c-9.591,2.809-20.763,8.883-26.986,16.703c-7.039,8.846-8.749,17.132-8.98,20.357
				c-0.618-0.062,0.631,0.087,0,0c0,0-0.786-9.391,8.648-21.246C400.249,272.1,408.948,266.684,418.539,263.875z"/>
		</g>
		<g id="XMLID_00000103240262276232028030000002082497002327540367_">
			<path style="fill:#2DA66D;" d="M413.037,318.744c0,0,14.242,8.991,2.728,29.529c0,0-2.919-22.316-13.357-16.906
				c0,0-15.101,3.576-23.763-5.913C378.646,325.455,398.07,304.872,413.037,318.744z"/>
		</g>
		<g id="XMLID_00000156578143094223803150000010505319493133101219_">
			<path style="fill:#2DA66D;" d="M412.115,319.678c-13.027-12.074-29.423,1.947-33.458,5.787c-0.003-0.004-0.007-0.006-0.011-0.01
				c0,0,19.424-20.583,34.392-6.711c0,0,14.242,8.991,2.728,29.529c0,0-0.037-0.258-0.095-0.625
				C425.622,328.217,412.115,319.678,412.115,319.678z"/>
		</g>
		<g id="XMLID_00000109745128369282656700000015217511173689639585_">
			<path id="XMLID_00000097488748393892442590000002776200045923622317_" style="fill:#033A3F;" d="M351.794,336.674
				c0.07,0.071,0.181,0.09,0.273,0.04c8.368-4.581,14.138-12.472,19.719-20.103c4.073-5.57,8.285-11.33,13.501-15.831
				c2.902-2.504,6.166-4.658,9.324-6.741l1.12-0.74c12.62-8.358,24.87-17.56,36.41-27.353c0.097-0.082,0.108-0.227,0.026-0.323
				c-0.071-0.102-0.227-0.108-0.323-0.027c-11.526,9.781-23.762,18.973-36.366,27.32l-1.119,0.739
				c-3.169,2.091-6.446,4.253-9.37,6.776c-5.256,4.535-9.483,10.317-13.572,15.908c-5.55,7.59-11.29,15.439-19.568,19.971
				c-0.111,0.061-0.152,0.2-0.091,0.311C351.766,336.642,351.78,336.659,351.794,336.674z"/>
		</g>
		<g id="XMLID_00000164509808938451011060000010009229909289968286_">
			<path id="XMLID_00000088099903744113509070000008409475215683287976_" style="fill:#033A3F;" d="M350.001,329.001
				c0.065,0.065,0.165,0.088,0.254,0.049c10.137-4.413,22.31-15.137,24.904-26.32c1.089-4.698,0.849-9.671,0.617-14.479
				c-0.292-6.051-0.594-12.309,1.83-17.863c0.051-0.116-0.003-0.253-0.118-0.302c-0.116-0.051-0.251,0.002-0.302,0.118
				c-2.467,5.652-2.163,11.964-1.868,18.068c0.23,4.777,0.469,9.717-0.606,14.354c-2.559,11.037-14.605,21.635-24.639,26.003
				c-0.116,0.051-0.169,0.186-0.119,0.302C349.965,328.958,349.981,328.981,350.001,329.001z"/>
		</g>
		<g id="XMLID_00000153683287741824789500000001390462510773468860_">
			<path id="XMLID_00000111911940963605922400000001863426395363637637_" style="fill:#033A3F;" d="M362.636,326.403
				c0.047,0.047,0.113,0.073,0.183,0.067c6.444-0.579,12.166-4.389,16.433-7.643c1.074-0.819,2.153-1.675,3.196-2.502
				c3.652-2.896,7.428-5.891,11.694-7.878c6.698-3.119,14.581-3.636,21.629-1.417c4.57,1.439,8.768,3.978,12.828,6.434
				c1.516,0.917,3.084,1.865,4.651,2.745c7.463,4.187,13.509,5.657,19.028,4.625c0.125-0.023,0.207-0.143,0.183-0.267
				c-0.023-0.125-0.143-0.207-0.267-0.184c-5.407,1.011-11.356-0.443-18.72-4.574c-1.56-0.875-3.124-1.822-4.637-2.737
				c-4.083-2.47-8.305-5.025-12.928-6.48c-7.155-2.252-15.159-1.728-21.959,1.439c-4.315,2.009-8.112,5.021-11.785,7.934
				c-1.042,0.826-2.119,1.681-3.189,2.497c-4.217,3.217-9.869,6.982-16.195,7.551c-0.126,0.011-0.22,0.123-0.208,0.249
				C362.576,326.318,362.6,326.367,362.636,326.403z"/>
		</g>
		<g id="XMLID_00000138575605515966313410000017167427009288847242_">
			<path id="XMLID_00000001655214777824827010000005752041506888365726_" style="fill:#033A3F;" d="M350.001,329.001
				c0.066,0.066,0.169,0.088,0.259,0.047c5.855-2.698,12.679-2.792,18.7-2.875l34.398-0.473c1.474-0.021,3.144-0.043,4.6,0.518
				c1.977,0.763,3.38,2.501,4.382,3.931c1.849,2.639,3.261,5.541,4.197,8.626c0.036,0.121,0.165,0.19,0.286,0.153
				c0.121-0.037,0.19-0.165,0.153-0.286c-0.949-3.131-2.382-6.077-4.259-8.756c-1.039-1.482-2.5-3.288-4.593-4.095
				c-1.538-0.593-3.255-0.57-4.771-0.549l-34.398,0.473c-6.066,0.084-12.942,0.178-18.885,2.917
				c-0.115,0.053-0.165,0.189-0.112,0.305C349.967,328.961,349.983,328.983,350.001,329.001z"/>
		</g>
	</g>
	<g>
		<g id="XMLID_00000105386718394586965900000001849586750592532609_">
			<g id="XMLID_00000171699390738075512700000001414038262097560246_">
				<path style="fill:#B2DCF7;" d="M359.73,150.469l-0.321,228.018c-0.006,4.034-3.28,7.299-7.314,7.294l-166.06-0.234
					c-4.034-0.006-7.299-3.28-7.294-7.314l0.321-228.018c0.006-4.034,3.28-7.299,7.314-7.294l49.447,0.07l-0.025,17.529
					l-39.229-0.055l-0.292,207.575l145.616,0.205l0.292-207.575l-39.222-0.055l0.025-17.529l49.447,0.07
					C356.47,143.16,359.736,146.435,359.73,150.469z"/>
				<g>
					<path style="fill:#FFFFFF;" d="M342.186,160.67l-0.292,207.575l-145.616-0.205l0.292-207.575l39.229,0.055l67.166,0.095
						L342.186,160.67z"/>
				</g>
				<path style="fill:#293F60;" d="M247.71,150.939L291.08,151c1.614,0.002,2.923-1.303,2.926-2.917
					c0.002-1.607-1.303-2.923-2.917-2.926l-43.37-0.061c-1.614-0.002-2.923,1.311-2.926,2.917
					C244.791,149.628,246.096,150.937,247.71,150.939z M302.991,142.318l-0.001,0.767l-0.025,17.529l-67.166-0.095l0.025-17.529
					l0.001-0.767c0.006-4.032,3.275-7.299,7.314-7.294l11.445,0.016c0.012-8.188,6.66-14.817,14.855-14.806
					c8.188,0.012,14.817,6.66,14.806,14.848l11.452,0.016C299.729,135.01,302.996,138.287,302.991,142.318z"/>
				<path style="fill:#F0FFFE;" d="M291.089,145.157c1.614,0.002,2.92,1.319,2.917,2.926c-0.002,1.614-1.312,2.92-2.926,2.917
					l-43.37-0.061c-1.614-0.002-2.92-1.311-2.917-2.926c0.002-1.607,1.311-2.92,2.926-2.917L291.089,145.157z"/>
			</g>
		</g>
	</g>
	<g id="XMLID_204_">
		<polygon id="XMLID_214_" style="fill:#85ADC9;" points="308.265,282.084 308.265,308.982 316.381,308.982 316.381,289.188 
			356.483,289.188 356.483,308.982 364.599,308.982 364.599,282.084 		"/>
		
			<rect id="XMLID_205_" x="289.485" y="305.023" transform="matrix(-1 -4.487667e-11 4.487667e-11 -1 699.1512 690.8031)" style="fill:#85ADC9;" width="120.181" height="80.758"/>
		
			<rect id="XMLID_197_" x="268.168" y="305.023" transform="matrix(-1 -4.487667e-11 4.487667e-11 -1 656.5167 690.8031)" style="fill:#A5C8E4;" width="120.181" height="80.758"/>
		
			<ellipse id="XMLID_203_" transform="matrix(0.3827 -0.9239 0.9239 0.3827 -120.4383 518.2185)" style="fill:#FFFFFF;" cx="327.565" cy="349.234" rx="27.983" ry="27.983"/>
		<g id="XMLID_202_">
			<g>
				
					<rect id="XMLID_00000098914119354875951010000017611824060815868842_" x="322.407" y="330.477" style="fill:#FD5B68;" width="10.316" height="37.513"/>
				
					<rect id="XMLID_00000146495615536071925400000002142904059335569320_" x="308.809" y="344.075" style="fill:#FD5B68;" width="37.513" height="10.316"/>
			</g>
		</g>
	</g>
	<g>
		<g>
			<path style="fill-rule:evenodd;clip-rule:evenodd;fill:#85ADC9;" d="M145.867,385.78h55.446l-11.095-78.526
				c-0.191-1.342-1.455-2.441-2.812-2.441h-45.014c-1.357,0-2.691,0.147-2.966,0.327c-0.275,0.179-1.093,1.264-1.819,2.41
				l-0.946,1.496c-0.726,1.146-1.164,3.182-0.974,4.525L145.867,385.78z"/>
			<path style="fill-rule:evenodd;clip-rule:evenodd;fill:#A5C8E4;" d="M141,385.78h55.451l-11.095-78.526
				c-0.19-1.342-1.454-2.441-2.811-2.441h-50.52c-1.354,0-2.311,1.098-2.12,2.441L141,385.78z"/>
			<g>
				<path style="fill-rule:evenodd;clip-rule:evenodd;fill:#85ADC9;" d="M50.559,354.567c-0.097,2.07,8.417,5.549,13.968,5.549
					c5.551,0,201.236,0,201.236,0c3.392,0,6.294-2.771,6.45-6.157l8.966-147.92c0.106-2.253-1.031-4.232-2.799-5.305
					c-0.89-0.541-7.097-5.22-8.233-5.22l-198.222,4.368c-3.393,0-6.293,2.769-6.449,6.156L50.559,354.567z"/>
				<path style="fill-rule:evenodd;clip-rule:evenodd;fill:#85ADC9;" d="M64.527,360.116c5.551,0,201.236,0,201.236,0
					c2.325,0,4.415-1.301,5.554-3.208v-0.001l-7.722-3.209l-212.759-1.896l-0.277,2.766
					C50.462,356.637,58.976,360.116,64.527,360.116z"/>
				<path style="fill-rule:evenodd;clip-rule:evenodd;fill:#E3FBFF;" d="M112.449,340.449c-0.754,0-1.446-0.291-1.948-0.818
					c-0.507-0.527-0.767-1.234-0.731-1.989l10.042-137.064c0.079-1.746,1.56-3.163,3.238-3.163h142.39
					c1.462,0,3.341,0.767,4.278,1.746c0.277,0.291,0.438,0.572,0.43,0.751l-8.863,137.396c-0.078,1.72-1.561,3.139-3.239,3.139
					H112.449z"/>
				<path style="fill-rule:evenodd;clip-rule:evenodd;fill:#85ADC9;" d="M263.463,203.834l-8.398,130.196H116.471l9.538-130.196
					H263.463L263.463,203.834z M265.44,197.416L265.44,197.416H123.05c-1.678,0-3.159,1.417-3.238,3.163L109.77,337.643
					c-0.036,0.755,0.223,1.461,0.731,1.989c0.502,0.526,1.194,0.818,1.948,0.818h145.596c1.678,0,3.161-1.419,3.239-3.139
					l8.863-137.396c0.008-0.18-0.153-0.461-0.43-0.751C268.781,198.183,266.902,197.416,265.44,197.416z"/>
				<polygon style="fill-rule:evenodd;clip-rule:evenodd;fill:#A5C8E4;" points="52.556,342.925 62.392,197.589 119.812,197.589 
					109.291,342.925 				"/>
				<path style="fill-rule:evenodd;clip-rule:evenodd;fill:#A5C8E4;" d="M265.44,200.625c0.4,0,0.984,0.188,1.427,0.407
					c0,0-8.167,136.006-8.143,136.012l-202.843,0.052l9.353-136.303l-0.007-0.018l0.004-0.068c0.012-0.025,0.049-0.063,0.079-0.082
					H265.44L265.44,200.625z M265.44,194.208L265.44,194.208H65.269c-3.388,0-6.286,2.77-6.44,6.158L48.782,350.748
					c-0.153,3.387,2.494,6.158,5.886,6.158h203.377c3.392,0,6.288-2.772,6.442-6.158l8.868-150.689
					C273.508,196.674,268.829,194.208,265.44,194.208z"/>
				<path style="fill-rule:evenodd;clip-rule:evenodd;fill:#FD5B68;" d="M91.023,203.625v14.011H78.019
					c-3.871,0-7.006-3.135-7.006-7.006c0-1.936,0.787-3.684,2.049-4.958c1.273-1.262,3.021-2.048,4.957-2.048L91.023,203.625z"/>
				<path style="fill-rule:evenodd;clip-rule:evenodd;fill:#FD5B68;" d="M90.863,203.625v14.011h13.005
					c3.871,0,7.006-3.135,7.006-7.006c0-1.936-0.787-3.684-2.049-4.958c-1.273-1.262-3.022-2.048-4.957-2.048L90.863,203.625z"/>
				<path style="fill-rule:evenodd;clip-rule:evenodd;fill:#FD5B68;" d="M88.157,227.6v14.011H75.152
					c-3.871,0-7.006-3.135-7.006-7.006c0-1.935,0.787-3.683,2.049-4.957c1.273-1.262,3.022-2.048,4.957-2.048H88.157z"/>
				<path style="fill-rule:evenodd;clip-rule:evenodd;fill:#FD5B68;" d="M87.996,227.6v14.011H101c3.871,0,7.006-3.135,7.006-7.006
					c0-1.935-0.787-3.683-2.049-4.957c-1.273-1.262-3.021-2.048-4.957-2.048H87.996z"/>
				<path style="fill-rule:evenodd;clip-rule:evenodd;fill:#FD5B68;" d="M86.155,251.261v14.011H73.151
					c-3.871,0-7.006-3.135-7.006-7.006c0-1.936,0.787-3.684,2.049-4.958c1.273-1.261,3.021-2.048,4.957-2.048H86.155z"/>
				<path style="fill-rule:evenodd;clip-rule:evenodd;fill:#FD5B68;" d="M85.995,251.261v14.011h13.004
					c3.871,0,7.006-3.135,7.006-7.006c0-1.936-0.787-3.684-2.049-4.958c-1.274-1.261-3.022-2.048-4.957-2.048H85.995z"/>
				<path style="fill-rule:evenodd;clip-rule:evenodd;fill:#FD5B68;" d="M82.105,336.388c7.347,0,13.338-5.991,13.338-13.338
					c0-7.346-5.992-13.338-13.338-13.338c-7.346,0-13.338,5.992-13.338,13.338C68.767,330.397,74.759,336.388,82.105,336.388z"/>
				<path style="fill-rule:evenodd;clip-rule:evenodd;fill:#FD5B68;" d="M84.568,302.513c7.347,0,13.338-5.991,13.338-13.338
					c0-7.346-5.992-13.338-13.338-13.338c-7.346,0-13.338,5.991-13.338,13.338C71.23,296.522,77.221,302.513,84.568,302.513z"/>
			</g>
		</g>
		<path style="fill-rule:evenodd;clip-rule:evenodd;fill:#A5C8E4;" d="M236.928,210.694h19.918c0.986,0,1.793,0.807,1.793,1.793
			c0,0.986-0.807,1.792-1.793,1.792h-19.918c-0.986,0-1.793-0.806-1.793-1.792C235.136,211.501,235.942,210.694,236.928,210.694z"/>
		<g>
			<g>
				<g>
					<g>
						<path style="fill:#FD5B68;" d="M198.409,284.11c-0.014,0-0.027-0.001-0.041-0.001c-0.691-0.044-1.246-0.587-1.305-1.277
							l-3.445-40.694l-5.344,19.96c-0.148,0.555-0.621,0.962-1.192,1.027c-0.567,0.061-1.121-0.226-1.392-0.732l-4.02-7.561
							l-4.186,6.577c-0.266,0.417-0.732,0.662-1.226,0.645l-25.599-0.863c-0.771-0.026-1.375-0.672-1.349-1.443
							c0.026-0.772,0.672-1.375,1.443-1.349l24.802,0.836l5.045-7.926c0.266-0.417,0.732-0.662,1.226-0.645c0.003,0,0.005,0,0.008,0
							c0.497,0.019,0.946,0.301,1.179,0.74l3.479,6.543l6.494-24.254c0.175-0.656,0.805-1.114,1.473-1.03
							c0.676,0.06,1.211,0.596,1.269,1.273l3.322,39.239l3.859-18.199c0.131-0.617,0.66-1.07,1.29-1.105
							c0.633-0.047,1.206,0.357,1.403,0.958l2.046,6.208l40.731,1.372c0.771,0.026,1.375,0.672,1.349,1.443
							c-0.026,0.772-0.672,1.375-1.443,1.349l-41.706-1.405c-0.586-0.02-1.096-0.403-1.28-0.959l-0.731-2.219l-4.746,22.385
							C199.681,283.668,199.084,284.133,198.409,284.11z"/>
					</g>
				</g>
			</g>
		</g>
		<g>
			<path style="fill:#A5C8E4;" d="M135.213,234.946c-0.066,1.954-1.708,3.49-3.663,3.424c-1.955-0.066-3.49-1.708-3.424-3.663
				c0.066-1.955,1.708-3.49,3.663-3.424C133.744,231.349,135.279,232.991,135.213,234.946z"/>
		</g>
		<g>
			<path style="fill:#A5C8E4;" d="M134.779,247.819c-0.066,1.954-1.708,3.49-3.663,3.424c-1.955-0.066-3.49-1.708-3.424-3.663
				c0.066-1.955,1.708-3.49,3.663-3.424C133.31,244.222,134.845,245.864,134.779,247.819z"/>
		</g>
		<g>
			<path style="fill:#A5C8E4;" d="M134.346,260.693c-0.066,1.954-1.708,3.49-3.663,3.424c-1.955-0.066-3.49-1.708-3.424-3.663
				c0.066-1.955,1.708-3.49,3.663-3.424C132.876,257.096,134.411,258.738,134.346,260.693z"/>
		</g>
		<g>
			<path style="fill:#A5C8E4;" d="M133.912,273.567c-0.066,1.954-1.708,3.49-3.663,3.424c-1.955-0.066-3.49-1.708-3.424-3.663
				c0.066-1.955,1.708-3.49,3.663-3.424C132.442,269.97,133.978,271.612,133.912,273.567z"/>
		</g>
		<g>
			<path style="fill:#A5C8E4;" d="M133.478,286.44c-0.066,1.954-1.708,3.49-3.663,3.424c-1.955-0.066-3.49-1.708-3.424-3.663
				c0.066-1.955,1.708-3.49,3.663-3.424C132.009,282.843,133.544,284.486,133.478,286.44z"/>
		</g>
		<g>
			<path style="fill:#A5C8E4;" d="M133.044,299.314c-0.066,1.954-1.708,3.49-3.663,3.424c-1.955-0.066-3.49-1.708-3.424-3.663
				c0.066-1.955,1.708-3.49,3.663-3.424C131.575,295.717,133.11,297.359,133.044,299.314z"/>
		</g>
		<g>
			<g>
				<path style="fill:#FD5B68;" d="M176.973,305.93c-0.512-0.017-0.961-0.349-1.129-0.836l-8.144-23.762l-4.421,9.54
					c-0.209,0.45-0.668,0.732-1.164,0.715l-11.029-0.372c-0.683-0.023-1.218-0.595-1.195-1.278c0.023-0.683,0.595-1.218,1.278-1.195
					l10.209,0.344l5.372-11.59c0.209-0.45,0.668-0.732,1.164-0.715c0.007,0,0.014,0,0.023,0.001
					c0.504,0.027,0.942,0.356,1.106,0.835l7.979,23.281l10.206-29.405c0.177-0.511,0.664-0.848,1.204-0.832c0.002,0,0.004,0,0.006,0
					c0.537,0.018,1.002,0.382,1.148,0.899l3.035,10.715l12.471,0.42c0.518,0.017,0.971,0.357,1.133,0.848l2.935,8.898l4.838-20.322
					c0.127-0.53,0.584-0.913,1.128-0.948c0.562-0.022,1.047,0.294,1.235,0.806l4.06,10.921l7.044,0.237l3.798-6.996
					c0.222-0.408,0.654-0.657,1.118-0.646c0.462-0.035,0.885,0.284,1.085,0.701l3.939,8.221l9.41,0.317
					c0.683,0.023,1.218,0.595,1.195,1.278s-0.595,1.218-1.278,1.195l-10.16-0.342c-0.461-0.016-0.875-0.286-1.074-0.701
					l-3.216-6.713l-3.007,5.539c-0.224,0.411-0.661,0.662-1.129,0.646l-8.637-0.291c-0.501-0.017-0.944-0.334-1.117-0.806
					l-2.929-7.878l-4.904,20.603c-0.128,0.537-0.598,0.925-1.151,0.95c-0.544,0.035-1.054-0.326-1.227-0.849l-4.033-12.223
					l-12.511-0.422c-0.537-0.018-1.002-0.382-1.148-0.899l-2.21-7.803l-10.094,29.083c-0.173,0.499-0.643,0.834-1.172,0.833
					C177,305.931,176.986,305.93,176.973,305.93z"/>
			</g>
		</g>
	</g>
	<g>
		<g>
			<g>
				<path style="fill:#F4B3B3;" d="M298.653,196.201c-0.183,0.503-0.41,0.973-0.672,1.402c-1.319,2.159-3.518,3.297-5.391,2.616
					l-0.127-0.046c-2.245-0.816-3.171-3.938-2.067-6.974l3.206-8.819l8.118,1.479L298.653,196.201z"/>
			</g>
		</g>
		<path style="fill-rule:evenodd;clip-rule:evenodd;fill:#F4B3B3;" d="M301.75,174.427c0,0-2.547-0.263-4.846,1.501
			c-2.287,1.754-5.788,8.088-2.202,12.865c3.582,4.775,8.938,1.662,10.613-2.621C306.997,181.894,308.251,175.846,301.75,174.427z"
			/>
		<path style="fill-rule:evenodd;clip-rule:evenodd;fill:#F4B3B3;" d="M306.695,185.128c-0.787,0.891-1.842,1.262-2.333,0.806
			c-0.501-0.443-0.252-1.535,0.535-2.425c0.799-0.898,1.844-1.259,2.346-0.814C307.741,183.135,307.496,184.23,306.695,185.128z"/>
		<g>
			<g>
				<path style="fill:#EC724C;" d="M300.058,185.346c0.009,0.003,0.018,0.006,0.027,0.008c0.257,0.059,1.553,0.32,1.875-0.311
					c0.281-0.552,0.003-2.649-0.056-3.064c-0.016-0.11-0.118-0.187-0.228-0.171c-0.11,0.016-0.187,0.118-0.171,0.228
					c0.129,0.912,0.269,2.485,0.096,2.825c-0.133,0.261-0.93,0.215-1.426,0.101c-0.108-0.025-0.216,0.043-0.241,0.151
					C299.911,185.212,299.965,185.31,300.058,185.346z"/>
			</g>
			<g>
				<path d="M304.271,183.2c-0.098,0.33-0.42,0.526-0.72,0.437c-0.3-0.089-0.463-0.429-0.365-0.759
					c0.098-0.33,0.42-0.526,0.72-0.437C304.205,182.53,304.369,182.87,304.271,183.2z"/>
			</g>
			<g>
				<path d="M298.24,179.201c0.045,0.017,0.096,0.018,0.144,0c1.094-0.42,1.938,0.511,1.947,0.52
					c0.074,0.083,0.201,0.091,0.285,0.017c0.083-0.074,0.091-0.201,0.017-0.284c-0.042-0.047-1.041-1.148-2.392-0.629
					c-0.104,0.04-0.156,0.156-0.116,0.26C298.146,179.14,298.189,179.181,298.24,179.201z"/>
			</g>
			<g>
				<path d="M303.614,180.714c0.041,0.016,0.086,0.018,0.131,0.004l0,0c0.035-0.011,0.867-0.255,1.335,0.443
					c0.062,0.092,0.187,0.117,0.28,0.055c0.092-0.062,0.117-0.187,0.055-0.28c-0.511-0.76-1.394-0.726-1.789-0.603
					c-0.106,0.033-0.165,0.146-0.132,0.252C303.512,180.647,303.558,180.693,303.614,180.714z"/>
			</g>
			<g>
				<path d="M297.778,185.745c2.415,1.478,3.718,1.392,3.718,1.392s-0.464,1.671-2.044,1.296
					C297.192,187.895,297.778,185.745,297.778,185.745z"/>
			</g>
			<g>
				<path style="fill:#FFFFFF;" d="M301.394,187.137c0,0-0.17,0.28-0.217,0.333c-0.048,0.05-0.361,0.141-1.453-0.159
					c-0.923-0.253-1.774-0.833-2.012-1.005c0.004-0.329,0.067-0.56,0.067-0.56c0.141,0.087,0.279,0.167,0.413,0.243
					c1.777,1.013,2.873,1.135,3.201,1.148C301.394,187.137,301.394,187.137,301.394,187.137z"/>
			</g>
			<g>
				<ellipse transform="matrix(0.2843 -0.9587 0.9587 0.2843 39.7126 416.9218)" cx="299.111" cy="181.861" rx="0.643" ry="0.583"/>
			</g>
		</g>
		<g>
			<path style="fill:#3678D3;" d="M294.231,181.717c0,0,0.635-4.706,6.12-4.621s6.003,4.78,6.003,4.78l0.327,0.161
				c0,0,1.41-4.154-0.352-7.198c-0.907-1.568-2.41-3.029-5.895-3.083c-4.485-0.07-6.008,1.804-6.667,4.125
				c-0.847,2.984,0.135,5.956,0.135,5.956L294.231,181.717z"/>
		</g>
		<path style="fill-rule:evenodd;clip-rule:evenodd;fill:#F4B3B3;" d="M294.967,181.391c-0.216,1.169-0.93,2.03-1.586,1.892
			c-0.657-0.122-1.006-1.187-0.789-2.355c0.223-1.182,0.934-2.028,1.592-1.905C294.839,179.144,295.192,180.209,294.967,181.391z"/>
		<g>
			<g>
				<path style="fill:#F4B3B3;" d="M213.304,317.66c-2.468-0.019-5.608-0.043-8.812-0.036c-6.764,0.022-13.792,0.167-15.245,0.681
					c1.297-10.262,5.83-16.497,5.83-16.497c3.413,0.026,7.059-0.177,10.727-0.527c1.356-0.126,2.712-0.273,4.058-0.441
					C210.945,304.796,212.565,311.352,213.304,317.66z"/>
				<path style="fill:#E87E6C;" d="M204.493,317.624c1.436-5.093,1.342-14.746,1.312-16.343c1.356-0.126,2.712-0.273,4.058-0.441
					c1.083,3.957,2.703,10.513,3.442,16.821C210.836,317.641,207.696,317.617,204.493,317.624z"/>
				<path style="fill:#063E8E;" d="M279.333,260.62c-2.061,9.899-6.951,21.625-12.124,31.941
					c-5.802,11.551-11.958,21.334-14.916,24.841c-5.459,6.47-43.01,15.162-43.01,15.162c0.762-3.523-2.395-27.326-3.426-31.294
					c-0.02-0.074-0.03-0.147-0.051-0.21c15.528-2.003,30.201-6.102,30.201-6.102l17.621-38.001l9.078-19.571L279.333,260.62z"/>
				<g>
					<g>
						<path style="fill:#277FFF;" d="M180.186,328.328c1.937-1.401,4.461-3.562,8.959-7.235c0.684-0.558,1.471-1.007,2.317-1.369
							c0.396-7.208,3.407-14.812,5.237-18.836c-3.251-0.456-6.642-0.939-9.996-1.425
							C186.019,300.59,180.186,328.328,180.186,328.328z"/>
					</g>
				</g>
			</g>
			<g>
				<path style="fill:#F4B3B3;" d="M321.425,370.678c-7.18,0.817-15.181-0.883-19.447-2.019c-0.124-4.412-0.26-8.572-0.37-12.018
					c-0.178-5.547-0.307-9.245-0.307-9.245l8.573,5.097l8.301,4.937c0,0-0.002,3.035,0.738,6.538
					C319.379,366.24,320.148,368.704,321.425,370.678z"/>
				<path style="fill:#E87E6C;" d="M318.913,363.968c-6.885-1.996-17.305-7.327-17.305-7.327l3.633-5.318l4.633,1.17l8.301,4.937
					C318.176,357.43,318.174,360.465,318.913,363.968z"/>
				<g>
					<g>
						<path style="fill:#277FFF;" d="M331.785,380.36c-1.704-1.676-4.257-3.804-8.629-7.626c-0.665-0.581-1.238-1.282-1.737-2.056
							c-7.173,0.812-15.173-0.887-19.446-2.02c0.093,3.282,0.183,6.705,0.263,10.094C303.464,379.237,331.785,380.36,331.785,380.36
							z"/>
					</g>
				</g>
				<path style="fill:#063E8E;" d="M322.327,361.19c-1.245-0.566-25.846-4.305-27.28-3.633l0.755-53.223
					c0,0-31.306-26.466-36.925-47.021c-1.931-7.041,0.552-14.511,3.049-19.638c1.889-3.903,3.799-6.451,3.799-6.451l24.057,13.061
					c-0.285,2.865-0.244,5.796,0.28,8.625c0.605,3.324,1.851,6.505,3.962,9.305c10.221,13.554,21.742,29.995,22.839,34.929
					C318.64,305.139,322.327,361.19,322.327,361.19z"/>
				<path style="opacity:0.15;fill:#13180C;" d="M282.608,244.366c-2.516-1.25-7.433-0.393-10.158-1.097
					c-2.725-0.704-5.471-1.502-7.812-3.064c-1.024-0.68-1.963-1.549-2.711-2.531c1.889-3.903,3.799-6.451,3.799-6.451l22.845,11.788
					C288.286,245.876,287.709,246.899,282.608,244.366z"/>
			</g>
		</g>
		<path style="fill:#F4B3B3;" d="M316.226,256.679c0,0,3.024,3.174,3.922,3.768s4.473,0.903,5.17,1.293
			c0.697,0.39,0.877-1.6-2.727-2.566c0,0,4.314-0.287,4.781-0.179c0.468,0.108,3.287,4.563,3.912,4.844
			c0.536,0.241,0.959,0.258,0.818-0.643c0.306,0.242,0.893,0.651,1.266,0.564c0.192-0.045,0.158-0.403,0.038-0.837
			c0.298,0.146,0.64,0.244,0.936,0.153c0.712-0.221-0.584-2.515-0.584-2.515l-1.729-2.985l-5.155-2.212l-5.094-1.166
			C318.66,254.479,316.226,256.679,316.226,256.679z M331.982,262.668l0.102-0.038l-0.071,0.153
			C332.004,262.746,331.993,262.707,331.982,262.668z"/>
		<g>
			<path style="fill:#277FFF;" d="M284.359,255.208c5.119-20.044,10.238-40.087,15.357-60.131c-1.979,1.049-3.957,2.098-5.936,3.147
				c-1.517-2.838-3.033-5.676-4.55-8.514c-5.309,20.989-10.617,41.978-15.926,62.967L284.359,255.208z"/>
		</g>
		<g>
			<path style="fill:#277FFF;" d="M247.141,255.503l24.362,5.579l2.783-11.204l14.944-60.168c0,0-20.945-0.985-23.043,0.638
				c-1.313,1.014-4.229,16.818-6.224,28.498c-1.194,6.98-2.059,12.488-2.059,12.488L247.141,255.503z"/>
		</g>
		<g>
			<path style="fill:#277FFF;" d="M299.716,195.077l12.573,10.31l-12.33,36.112l-3.317,25.373
				c-10.429-2.381-20.859-4.761-31.288-7.142C276.807,238.179,288.262,216.628,299.716,195.077z"/>
		</g>
		<path style="fill:#207FEF;" d="M301.904,234.727c0.259,3.554,0.659,6.633,1.28,7.667c1.758,2.925,12.234,16.218,12.234,16.218
			c3.768-4.224,7.481-4.63,7.481-4.63l-9.771-17.334l-1.037-31.751L301.904,234.727z"/>
		<g>
			<g>
				<path style="fill:#293F60;" d="M236.747,248.731c-2.848,9.553,4.286,18.109,11.17,25.715c0.408,0.453,0.816,0.899,1.22,1.344
					c0.052,0.057,0.102,0.112,0.153,0.17c0.233,0.255,0.467,0.51,0.696,0.763c2.745,3.026,5.306,5.934,6.761,8.54
					c0.17,0.303,0.324,0.603,0.464,0.898c0.305,0.654,0.532,1.285,0.662,1.892c0.6-0.22,1.182-0.513,1.74-0.878
					c0.224-0.146,0.439-0.301,0.645-0.464c-0.196-0.648-0.46-1.304-0.791-1.966c-0.148-0.307-0.315-0.616-0.492-0.925
					c-1.601-2.808-4.195-5.748-7.079-8.929c-0.228-0.251-0.455-0.503-0.689-0.758c-0.038-0.042-0.074-0.081-0.112-0.123
					c-0.414-0.456-0.832-0.913-1.251-1.376c-6.403-7.078-12.993-14.992-10.563-23.148c1.106-3.705,8.307-8.916,16.872-10.468
					c3.218-0.584,8.243-0.9,13.094,1.217c-2.502,2.468-4.576,5.177-5.822,7.905c-2.164,4.751-1.617,9.05,1.578,12.432
					c4.057,4.293,9.677,3.574,13.13,0.649c3.887-3.293,5.735-9.917,0.61-16.679c-1.449-1.915-3.117-3.52-4.975-4.809
					c5.532-4.52,12.203-7.647,15.76-7.501c0.729,0.029,1.346-0.536,1.373-1.267c0.032-0.73-0.536-1.346-1.264-1.375
					c-4.648-0.191-12.251,3.514-18.282,8.704c-4.473-2.275-9.814-2.941-15.673-1.88
					C246.786,238.028,238.291,243.553,236.747,248.731z M271.701,241.54c1.748,1.115,3.428,2.611,4.936,4.6
					c0.231,0.305,0.445,0.611,0.645,0.916c3.314,5.067,2.033,9.697-0.86,12.147c-2.428,2.055-6.433,2.792-9.497-0.447
					c-2.43-2.572-2.796-5.774-1.091-9.519C267.06,246.542,269.181,243.905,271.701,241.54z"/>
			</g>
			<g>
				<path style="fill:#293F60;" d="M250.022,272.51c-0.061,0.04-0.121,0.079-0.179,0.124c-0.75,0.512-1.395,1.126-1.927,1.811
					c-2.252,2.871-2.541,6.972-0.434,10.194c2.286,3.495,6.638,4.818,10.39,3.414c0.6-0.22,1.182-0.513,1.74-0.878
					c0.224-0.146,0.439-0.301,0.645-0.464c3.518-2.782,4.395-7.836,1.892-11.664C259.502,270.999,254.071,269.863,250.022,272.51z"
					/>
				<path style="fill:#CCCCCC;" d="M258.515,285.499c3.123-2.042,3.999-6.23,1.957-9.353c-2.042-3.123-6.23-3.999-9.353-1.957
					c-3.123,2.042-3.999,6.23-1.957,9.353C251.205,286.665,255.392,287.541,258.515,285.499z"/>
				<path style="fill:#293F60;" d="M257.966,284.66c2.659-1.739,3.405-5.305,1.666-7.964c-1.739-2.659-5.305-3.405-7.964-1.666
					c-2.659,1.739-3.405,5.305-1.666,7.964C251.741,285.653,255.307,286.399,257.966,284.66z"/>
			</g>
			<g>
				<path style="fill:#293F60;" d="M289.935,231.344c6.228,9.523,19.041,12.203,28.564,5.976l4.978-3.255
					c3.96-2.589,4.348-9.028,0.865-14.354l-0.984,0.643c3.128,4.783,2.892,10.492-0.525,12.726l-4.978,3.255
					c-8.98,5.873-21.064,3.345-26.936-5.635c-5.873-8.98-3.345-21.064,5.635-26.936l4.978-3.255
					c3.417-2.235,8.742-0.162,11.869,4.621l0.853,1.305l0.984-0.643l-0.853-1.305c-3.483-5.325-9.537-7.551-13.497-4.961
					l-4.978,3.255C286.388,209.008,283.707,221.822,289.935,231.344z"/>
			</g>
			<g>
				<path style="fill:#293F60;" d="M289.32,231.746c6.449,9.862,19.719,12.638,29.581,6.188c0.611-0.4,0.783-1.219,0.383-1.831
					c-0.4-0.611-1.219-0.783-1.831-0.383c-8.641,5.651-20.268,3.219-25.919-5.422c-5.651-8.641-3.218-20.268,5.422-25.919
					c0.611-0.4,0.783-1.219,0.383-1.831c-0.4-0.611-1.219-0.783-1.831-0.383C285.647,208.615,282.871,221.885,289.32,231.746z"/>
			</g>
			<path style="fill:#293F60;" d="M325.118,222.108c0.952-0.623,1.219-1.9,0.597-2.852c-0.623-0.952-1.9-1.219-2.852-0.597
				c-0.952,0.623-1.22,1.9-0.597,2.852C322.889,222.464,324.166,222.731,325.118,222.108z"/>
			<path style="fill:#293F60;" d="M315.975,208.127c0.952-0.623,1.219-1.9,0.597-2.852c-0.623-0.952-1.9-1.219-2.852-0.597
				c-0.952,0.623-1.22,1.9-0.597,2.852C313.745,208.483,315.022,208.75,315.975,208.127z"/>
		</g>
		<g>
			<path style="fill:#F4B3B3;" d="M270.093,237.995l2.932-5.701l6.066,0.667c0,0,4.153,2.273,4.603,2.976
				c0.445,0.694-0.01,1.46-0.553,1.561c0,0,0.769,1.161-0.452,1.949c0,0,0.594,1.205-0.813,1.834c0,0,0.15,1.067-1.009,1.167
				c-1.118,0.097-3.84-0.506-6.521-1.773L270.093,237.995z"/>
		</g>
		<g>
			<path style="fill:#207FEF;" d="M266.284,190.407c0,0-18.82,27.461-19.281,32.684c-0.461,5.223,22.165,19.205,22.165,19.205
				l5.199-9.854l-12.99-9.994l5.565-10.511L266.284,190.407z"/>
		</g>
	</g>
	<g>
		<g>
			
				<ellipse transform="matrix(0.9239 -0.3827 0.3827 0.9239 -48.2741 184.3124)" style="fill:#E3FBFF;" cx="439.163" cy="213.501" rx="12.038" ry="12.038"/>
		</g>
		<g>
			
				<ellipse transform="matrix(0.1577 -0.9875 0.9875 0.1577 -110.5895 164.8099)" style="fill:#E3FBFF;" cx="41.317" cy="147.233" rx="12.038" ry="12.038"/>
		</g>
		<g>
			<circle style="fill:#E3FBFF;" cx="456.575" cy="234.685" r="7.522"/>
		</g>
		<g>
			<path style="fill:#FFFFFF;" d="M43.084,145.852v-3.368c0-0.764-0.62-1.384-1.384-1.384c-0.764,0-1.384,0.62-1.384,1.384v3.368
				h-3.368c-0.764,0-1.384,0.62-1.384,1.384c0,0.764,0.62,1.384,1.384,1.384l3.368,0v3.362c0,0.764,0.62,1.384,1.384,1.384
				c0.382,0,0.728-0.155,0.979-0.405c0.25-0.25,0.405-0.597,0.405-0.979v-3.362h3.362c0.382,0,0.728-0.155,0.979-0.405
				c0.25-0.25,0.405-0.597,0.405-0.979c0-0.764-0.62-1.384-1.384-1.384H43.084z"/>
		</g>
		<g>
			<g>
				<circle style="fill:#E3FBFF;" cx="280.916" cy="80.624" r="12.038"/>
			</g>
			<g>
				<path style="fill:#FFFFFF;" d="M282.783,79.243v-3.368c0-0.764-0.62-1.384-1.384-1.384c-0.764,0-1.384,0.62-1.384,1.384v3.368
					h-3.368c-0.764,0-1.384,0.62-1.384,1.384c0,0.764,0.62,1.384,1.384,1.384l3.368,0v3.362c0,0.764,0.62,1.384,1.384,1.384
					c0.382,0,0.728-0.155,0.979-0.405c0.25-0.25,0.405-0.597,0.405-0.979v-3.362h3.362c0.382,0,0.728-0.155,0.979-0.405
					c0.25-0.25,0.405-0.597,0.405-0.979c0-0.764-0.62-1.384-1.384-1.384H282.783z"/>
			</g>
		</g>
		<g>
			<path style="fill:#FFFFFF;" d="M440.829,211.842v-4.046c0-0.918-0.744-1.663-1.663-1.663c-0.918,0-1.663,0.744-1.663,1.663v4.046
				h-4.046c-0.918-0.001-1.663,0.744-1.663,1.663c0,0.918,0.744,1.663,1.663,1.663l4.046,0v4.038c0,0.918,0.744,1.663,1.663,1.663
				c0.459,0,0.875-0.186,1.176-0.487c0.301-0.301,0.487-0.717,0.487-1.176v-4.038h4.038c0.459,0,0.875-0.186,1.176-0.487
				c0.301-0.301,0.487-0.717,0.487-1.176c0-0.918-0.744-1.663-1.663-1.663H440.829z"/>
		</g>
		<g>
			<g>
				<circle style="fill:#E3FBFF;" cx="261.233" cy="94.077" r="7.522"/>
			</g>
			<g>
				<path style="fill:#FFFFFF;" d="M262.083,92.844V90.78c0-0.469-0.38-0.848-0.848-0.848c-0.468,0-0.848,0.38-0.848,0.848v2.064
					h-2.064c-0.468,0-0.848,0.38-0.848,0.848c0,0.468,0.38,0.848,0.848,0.848l2.064,0v2.06c0,0.469,0.38,0.848,0.848,0.848
					c0.234,0,0.446-0.095,0.6-0.248c0.153-0.153,0.248-0.366,0.248-0.6v-2.06h2.06c0.234,0,0.446-0.095,0.6-0.248
					s0.249-0.366,0.248-0.6c0-0.468-0.38-0.848-0.848-0.848H262.083z"/>
			</g>
		</g>
	</g>
	<rect x="28.499" y="380.959" style="fill:#293F60;" width="443.001" height="6.459"/>
</g>
<g id="TEXTS">
</g>
</svg>
